<mxfile host="app.diagrams.net" modified="2024-04-23T15:39:22.177Z" agent="Mozilla/5.0 (Windows NT 10.0; Win64; x64) AppleWebKit/537.36 (KHTML, like Gecko) Chrome/123.0.0.0 Safari/537.36" etag="NGkrISS_TGvnBQ3Ak468" version="24.2.8" type="device">
  <diagram name="Page-1" id="0GevuHgi47AIWaizJEuW">
    <mxGraphModel dx="1834" dy="1138" grid="1" gridSize="8" guides="1" tooltips="1" connect="1" arrows="1" fold="1" page="0" pageScale="1" pageWidth="850" pageHeight="1100" math="0" shadow="0">
      <root>
        <mxCell id="0" />
        <mxCell id="1" parent="0" />
        <mxCell id="nMpoD2AOEA2PLy0Pe4GZ-5" value="Password Reset Process" style="swimlane;childLayout=stackLayout;resizeParent=1;resizeParentMax=0;horizontal=1;startSize=20;horizontalStack=0;html=1;gradientColor=none;rounded=0;swimlaneLine=1;glass=0;" parent="1" vertex="1">
          <mxGeometry x="-216" y="72" width="920" height="308" as="geometry">
            <mxRectangle x="-216" y="16" width="168" height="32" as="alternateBounds" />
          </mxGeometry>
        </mxCell>
        <mxCell id="nMpoD2AOEA2PLy0Pe4GZ-6" value="User" style="swimlane;startSize=20;horizontal=0;html=1;fillColor=#ffe6cc;strokeColor=#d79b00;" parent="nMpoD2AOEA2PLy0Pe4GZ-5" vertex="1">
          <mxGeometry y="20" width="920" height="142" as="geometry" />
        </mxCell>
        <mxCell id="nMpoD2AOEA2PLy0Pe4GZ-10" value="&lt;font style=&quot;font-size: 10px;&quot;&gt;Initiate Forgotten Password&lt;/font&gt;" style="rounded=1;whiteSpace=wrap;html=1;absoluteArcSize=1;arcSize=14;strokeWidth=2;fillColor=#ffe6cc;strokeColor=#d79b00;" parent="nMpoD2AOEA2PLy0Pe4GZ-6" vertex="1">
          <mxGeometry x="32" y="21" width="100" height="100" as="geometry" />
        </mxCell>
        <mxCell id="nMpoD2AOEA2PLy0Pe4GZ-14" value="&lt;font style=&quot;font-size: 10px;&quot;&gt;Verify Existing Account&lt;/font&gt;" style="rounded=1;whiteSpace=wrap;html=1;absoluteArcSize=1;arcSize=14;strokeWidth=2;fillColor=#ffe6cc;strokeColor=#d79b00;" parent="nMpoD2AOEA2PLy0Pe4GZ-6" vertex="1">
          <mxGeometry x="168" y="21" width="100" height="100" as="geometry" />
        </mxCell>
        <mxCell id="nMpoD2AOEA2PLy0Pe4GZ-18" style="edgeStyle=orthogonalEdgeStyle;rounded=0;orthogonalLoop=1;jettySize=auto;html=1;exitX=1;exitY=0.5;exitDx=0;exitDy=0;entryX=0;entryY=0.5;entryDx=0;entryDy=0;" parent="nMpoD2AOEA2PLy0Pe4GZ-6" source="nMpoD2AOEA2PLy0Pe4GZ-10" target="nMpoD2AOEA2PLy0Pe4GZ-14" edge="1">
          <mxGeometry relative="1" as="geometry" />
        </mxCell>
        <mxCell id="utYKah48j3yyHusgUifZ-17" style="edgeStyle=orthogonalEdgeStyle;rounded=0;orthogonalLoop=1;jettySize=auto;html=1;exitX=0;exitY=0.5;exitDx=0;exitDy=0;entryX=1;entryY=0.5;entryDx=0;entryDy=0;" parent="nMpoD2AOEA2PLy0Pe4GZ-6" source="utYKah48j3yyHusgUifZ-11" target="nMpoD2AOEA2PLy0Pe4GZ-14" edge="1">
          <mxGeometry relative="1" as="geometry" />
        </mxCell>
        <mxCell id="utYKah48j3yyHusgUifZ-11" value="&lt;font style=&quot;font-size: 10px;&quot;&gt;Account Not&amp;nbsp;&lt;/font&gt;&lt;div style=&quot;font-size: 10px;&quot;&gt;&lt;font style=&quot;font-size: 10px;&quot;&gt;Found Error&lt;/font&gt;&lt;/div&gt;" style="shape=parallelogram;html=1;strokeWidth=2;perimeter=parallelogramPerimeter;whiteSpace=wrap;rounded=1;arcSize=12;size=0.23;fillColor=#ffe6cc;strokeColor=#d79b00;" parent="nMpoD2AOEA2PLy0Pe4GZ-6" vertex="1">
          <mxGeometry x="296" y="44.5" width="112" height="53" as="geometry" />
        </mxCell>
        <mxCell id="utYKah48j3yyHusgUifZ-24" value="&lt;font style=&quot;font-size: 10px;&quot;&gt;Reset Password&lt;/font&gt;" style="rounded=1;whiteSpace=wrap;html=1;absoluteArcSize=1;arcSize=14;strokeWidth=2;fillColor=#ffe6cc;strokeColor=#d79b00;" parent="nMpoD2AOEA2PLy0Pe4GZ-6" vertex="1">
          <mxGeometry x="474" y="21" width="100" height="100" as="geometry" />
        </mxCell>
        <mxCell id="utYKah48j3yyHusgUifZ-9" style="edgeStyle=orthogonalEdgeStyle;rounded=0;orthogonalLoop=1;jettySize=auto;html=1;exitX=0.5;exitY=1;exitDx=0;exitDy=0;entryX=0;entryY=0.5;entryDx=0;entryDy=0;entryPerimeter=0;" parent="nMpoD2AOEA2PLy0Pe4GZ-5" source="nMpoD2AOEA2PLy0Pe4GZ-14" target="utYKah48j3yyHusgUifZ-7" edge="1">
          <mxGeometry relative="1" as="geometry" />
        </mxCell>
        <mxCell id="utYKah48j3yyHusgUifZ-22" value="No" style="edgeStyle=orthogonalEdgeStyle;rounded=0;orthogonalLoop=1;jettySize=auto;html=1;exitX=0.5;exitY=0;exitDx=0;exitDy=0;exitPerimeter=0;entryX=0.5;entryY=1;entryDx=0;entryDy=0;movable=1;resizable=1;rotatable=1;deletable=1;editable=1;locked=0;connectable=1;fontSize=10;" parent="nMpoD2AOEA2PLy0Pe4GZ-5" source="utYKah48j3yyHusgUifZ-7" target="utYKah48j3yyHusgUifZ-11" edge="1">
          <mxGeometry relative="1" as="geometry" />
        </mxCell>
        <mxCell id="utYKah48j3yyHusgUifZ-25" style="edgeStyle=orthogonalEdgeStyle;rounded=0;orthogonalLoop=1;jettySize=auto;html=1;exitX=0.5;exitY=0;exitDx=0;exitDy=0;entryX=0.5;entryY=1;entryDx=0;entryDy=0;" parent="nMpoD2AOEA2PLy0Pe4GZ-5" source="utYKah48j3yyHusgUifZ-19" target="utYKah48j3yyHusgUifZ-24" edge="1">
          <mxGeometry relative="1" as="geometry" />
        </mxCell>
        <mxCell id="nMpoD2AOEA2PLy0Pe4GZ-7" value="System" style="swimlane;startSize=20;horizontal=0;html=1;fillColor=#dae8fc;strokeColor=#6c8ebf;" parent="nMpoD2AOEA2PLy0Pe4GZ-5" vertex="1">
          <mxGeometry y="162" width="920" height="146" as="geometry" />
        </mxCell>
        <mxCell id="utYKah48j3yyHusgUifZ-23" value="yes" style="edgeStyle=orthogonalEdgeStyle;rounded=0;orthogonalLoop=1;jettySize=auto;html=1;exitX=1;exitY=0.5;exitDx=0;exitDy=0;exitPerimeter=0;entryX=0;entryY=0.5;entryDx=0;entryDy=0;fontSize=10;" parent="nMpoD2AOEA2PLy0Pe4GZ-7" source="utYKah48j3yyHusgUifZ-7" target="utYKah48j3yyHusgUifZ-19" edge="1">
          <mxGeometry relative="1" as="geometry" />
        </mxCell>
        <mxCell id="utYKah48j3yyHusgUifZ-7" value="&lt;font style=&quot;font-size: 10px;&quot;&gt;Account Exists?&lt;/font&gt;" style="strokeWidth=2;html=1;shape=mxgraph.flowchart.decision;whiteSpace=wrap;fillColor=#dae8fc;strokeColor=#6c8ebf;" parent="nMpoD2AOEA2PLy0Pe4GZ-7" vertex="1">
          <mxGeometry x="296" y="16" width="112" height="114" as="geometry" />
        </mxCell>
        <mxCell id="utYKah48j3yyHusgUifZ-19" value="&lt;font style=&quot;font-size: 10px;&quot;&gt;Generate Password&lt;/font&gt;&lt;div&gt;&lt;font style=&quot;font-size: 10px;&quot;&gt;&amp;nbsp;Reset Email&lt;/font&gt;&lt;/div&gt;" style="shape=parallelogram;html=1;strokeWidth=2;perimeter=parallelogramPerimeter;whiteSpace=wrap;rounded=1;arcSize=12;size=0.23;fillColor=#dae8fc;strokeColor=#6c8ebf;" parent="nMpoD2AOEA2PLy0Pe4GZ-7" vertex="1">
          <mxGeometry x="456" y="37" width="136" height="72" as="geometry" />
        </mxCell>
        <mxCell id="utYKah48j3yyHusgUifZ-33" value="&lt;font style=&quot;font-size: 10px;&quot;&gt;Save Password&lt;/font&gt;" style="strokeWidth=2;html=1;shape=mxgraph.flowchart.stored_data;whiteSpace=wrap;fillColor=#dae8fc;strokeColor=#6c8ebf;" parent="nMpoD2AOEA2PLy0Pe4GZ-7" vertex="1">
          <mxGeometry x="648" y="43" width="100" height="60" as="geometry" />
        </mxCell>
        <mxCell id="utYKah48j3yyHusgUifZ-36" value="&lt;font style=&quot;font-size: 10px;&quot;&gt;Redirect to Login&lt;/font&gt;" style="rounded=1;whiteSpace=wrap;html=1;absoluteArcSize=1;arcSize=14;strokeWidth=2;fillColor=#dae8fc;strokeColor=#6c8ebf;" parent="nMpoD2AOEA2PLy0Pe4GZ-7" vertex="1">
          <mxGeometry x="800" y="23" width="100" height="100" as="geometry" />
        </mxCell>
        <mxCell id="utYKah48j3yyHusgUifZ-37" style="edgeStyle=orthogonalEdgeStyle;rounded=0;orthogonalLoop=1;jettySize=auto;html=1;exitX=0.93;exitY=0.5;exitDx=0;exitDy=0;exitPerimeter=0;entryX=0;entryY=0.5;entryDx=0;entryDy=0;" parent="nMpoD2AOEA2PLy0Pe4GZ-7" source="utYKah48j3yyHusgUifZ-33" target="utYKah48j3yyHusgUifZ-36" edge="1">
          <mxGeometry relative="1" as="geometry">
            <mxPoint x="800" y="74" as="targetPoint" />
          </mxGeometry>
        </mxCell>
        <mxCell id="i-SEseU1vIdabyMvkL0d-1" style="edgeStyle=orthogonalEdgeStyle;rounded=0;orthogonalLoop=1;jettySize=auto;html=1;exitX=1;exitY=0.5;exitDx=0;exitDy=0;entryX=0.5;entryY=0;entryDx=0;entryDy=0;entryPerimeter=0;" parent="nMpoD2AOEA2PLy0Pe4GZ-5" source="utYKah48j3yyHusgUifZ-24" target="utYKah48j3yyHusgUifZ-33" edge="1">
          <mxGeometry relative="1" as="geometry" />
        </mxCell>
        <mxCell id="nMpoD2AOEA2PLy0Pe4GZ-9" value="Start" style="strokeWidth=2;html=1;shape=mxgraph.flowchart.start_1;whiteSpace=wrap;fillColor=#d5e8d4;strokeColor=#82b366;" parent="1" vertex="1">
          <mxGeometry x="-192" y="-24" width="100" height="60" as="geometry" />
        </mxCell>
        <mxCell id="nMpoD2AOEA2PLy0Pe4GZ-13" style="edgeStyle=orthogonalEdgeStyle;rounded=0;orthogonalLoop=1;jettySize=auto;html=1;exitX=0.5;exitY=1;exitDx=0;exitDy=0;exitPerimeter=0;entryX=0.42;entryY=0.01;entryDx=0;entryDy=0;entryPerimeter=0;" parent="1" source="nMpoD2AOEA2PLy0Pe4GZ-9" target="nMpoD2AOEA2PLy0Pe4GZ-10" edge="1">
          <mxGeometry relative="1" as="geometry" />
        </mxCell>
        <mxCell id="utYKah48j3yyHusgUifZ-38" value="End" style="strokeWidth=2;html=1;shape=mxgraph.flowchart.terminator;whiteSpace=wrap;fillColor=#d5e8d4;strokeColor=#82b366;" parent="1" vertex="1">
          <mxGeometry x="584" y="416" width="100" height="60" as="geometry" />
        </mxCell>
        <mxCell id="utYKah48j3yyHusgUifZ-40" style="edgeStyle=orthogonalEdgeStyle;rounded=0;orthogonalLoop=1;jettySize=auto;html=1;exitX=0.5;exitY=1;exitDx=0;exitDy=0;entryX=0.5;entryY=0;entryDx=0;entryDy=0;entryPerimeter=0;" parent="1" source="utYKah48j3yyHusgUifZ-36" target="utYKah48j3yyHusgUifZ-38" edge="1">
          <mxGeometry relative="1" as="geometry" />
        </mxCell>
        <mxCell id="i-SEseU1vIdabyMvkL0d-10" value="&lt;font style=&quot;font-size: 21px&quot;&gt;Password Reset Process&lt;/font&gt;" style="rounded=0;whiteSpace=wrap;html=1;strokeColor=none;fillColor=#FFFFFF;fontSize=12;align=right;" parent="1" vertex="1">
          <mxGeometry x="-363" y="-160" width="1130" height="50" as="geometry" />
        </mxCell>
        <mxCell id="i-SEseU1vIdabyMvkL0d-11" value="&lt;span style=&quot;font-size: 16px&quot;&gt;Amr Abedo&lt;/span&gt;" style="rounded=0;whiteSpace=wrap;html=1;strokeColor=none;fillColor=#FFFFFF;fontSize=12;align=right;" parent="1" vertex="1">
          <mxGeometry x="-353" y="-96" width="1120" height="20" as="geometry" />
        </mxCell>
        <mxCell id="i-SEseU1vIdabyMvkL0d-13" value="" style="rounded=0;whiteSpace=wrap;html=1;strokeColor=none;fillColor=#FFFFFF;fontSize=12;fontColor=#4A4A4A;align=right;" parent="1" vertex="1">
          <mxGeometry x="-368" y="676" width="1150" height="1" as="geometry" />
        </mxCell>
      </root>
    </mxGraphModel>
  </diagram>
</mxfile>
